<?xml version="1.0" encoding="UTF-8" standalone="no"?>
<svg xmlns="http://www.w3.org/2000/svg" style="isolation:isolate" viewBox="0 0 100 100" width="100" height="100">
	<defs>
		<clipPath id="all">
			<rect x="0" y="0" width="100" height="100"/>
		</clipPath>
	</defs>
	<g clip-path="url(#all)">
		<path d=" M 53.485 74.558 L 76.344 55.714 L 99.228 74.558 C 99.654 74.909 100 75.642 100 76.194 L 100 89 C 100 95.071 95.071 100 89 100 L 63.713 100 C 57.642 100 52.713 95.071 52.713 89 L 52.713 76.194 C 52.713 75.642 53.059 74.909 53.485 74.558 Z " fill="rgb(235,235,235)"/>
		<path d=" M 0.772 25.442 L 23.631 44.286 L 46.515 25.442 C 46.941 25.091 47.287 24.358 47.287 23.806 L 47.287 11 C 47.287 4.929 42.358 0 36.287 0 L 11 0 C 4.929 0 0 4.929 0 11 L 0 23.806 C 0 24.358 0.346 25.091 0.772 25.442 Z " fill="rgb(235,235,235)"/>
		<path d=" M 99.721 65.594 L 100 65.594 L 100 5.478 C 100 2.455 97.545 0 94.522 0 L 58.191 0 C 55.168 0 52.713 2.455 52.713 5.478 L 52.713 65.594 L 52.992 65.594 C 53.126 65.34 53.298 65.112 53.485 64.958 L 76.344 46.114 L 99.228 64.958 C 99.415 65.112 99.587 65.34 99.721 65.594 Z  M 74.13 10.63 L 74.13 18.074 C 74.13 19.091 73.304 19.917 72.287 19.917 L 64.843 19.917 C 63.826 19.917 63 20.743 63 21.76 L 63 22.526 C 63 23.543 63.826 24.369 64.843 24.369 L 72.287 24.369 C 73.304 24.369 74.13 25.195 74.13 26.213 L 74.13 33.656 C 74.13 34.674 74.956 35.5 75.974 35.5 L 76.739 35.5 C 77.757 35.5 78.583 34.674 78.583 33.656 L 78.583 26.213 C 78.583 25.195 79.409 24.369 80.426 24.369 L 87.87 24.369 C 88.887 24.369 89.713 23.543 89.713 22.526 L 89.713 21.76 C 89.713 20.743 88.887 19.917 87.87 19.917 L 80.426 19.917 C 79.409 19.917 78.583 19.091 78.583 18.074 L 78.583 10.63 C 78.583 9.612 77.757 8.786 76.739 8.786 L 75.974 8.786 C 74.956 8.786 74.13 9.612 74.13 10.63 Z " fill-rule="evenodd" fill="rgb(136,136,136)"/>
		<path d=" M 47.007 34.406 L 47.287 34.406 L 47.287 94.522 C 47.287 97.545 44.832 100 41.809 100 L 5.478 100 C 2.455 100 0 97.545 0 94.522 L 0 34.406 L 0.279 34.406 C 0.413 34.66 0.585 34.888 0.772 35.042 L 23.631 53.886 L 46.515 35.042 C 46.702 34.888 46.874 34.66 47.007 34.406 Z  M 10.287 77.474 L 10.287 78.24 C 10.287 79.257 11.113 80.083 12.13 80.083 L 35.157 80.083 C 36.174 80.083 37 79.257 37 78.24 L 37 77.474 C 37 76.457 36.174 75.631 35.157 75.631 L 12.13 75.631 C 11.113 75.631 10.287 76.457 10.287 77.474 Z " fill-rule="evenodd" fill="rgb(136,136,136)"/>
	</g>
</svg>
